<?xml version="1.0" encoding="UTF-8"?>
<svg width="972px" height="827px" viewBox="0 0 972 827" version="1.1" xmlns="http://www.w3.org/2000/svg" xmlns:xlink="http://www.w3.org/1999/xlink">
    <title>logo_TTN</title>
    <defs>
        <linearGradient x1="0%" y1="37.2933919%" x2="100%" y2="62.7066081%" id="linearGradient-1">
            <stop stop-color="#57D0FF" offset="0%"></stop>
            <stop stop-color="#2CB4FF" offset="100%"></stop>
        </linearGradient>
    </defs>
    <g id="Page-1" stroke="none" stroke-width="1" fill="none" fill-rule="evenodd">
        <g id="Artboard-Copy-25" transform="translate(-13490.000000, -9592.000000)">
            <g id="logo_TTN" transform="translate(13490.000000, 9592.000000)">
                <path d="M605.039064,717.831858 C635.715697,717.831858 660.569451,741.570243 660.569451,771.705199 C660.569451,802.835177 636.425804,827 606.317257,827 C577.060838,827 549.650699,805.962389 549.650699,774.832412 C549.650699,742.280973 573.084238,717.831858 605.039064,717.831858 Z M59.3120964,719.821903 C61.2859599,719.821903 63.1183898,720.846326 64.1522288,722.527788 L64.1522288,722.527788 L103.390705,786.346239 L102.353231,725.600747 C102.352678,725.568408 102.352402,725.536065 102.352402,725.503721 C102.352402,722.365739 104.896239,719.821903 108.03422,719.821903 L108.03422,719.821903 L122.278598,719.821903 C125.416579,719.821903 127.960416,722.365739 127.960416,725.503721 L127.960416,725.503721 L127.960416,819.328138 C127.960416,822.466119 125.416579,825.009956 122.278598,825.009956 L122.278598,825.009956 L107.810654,825.009956 C105.855636,825.009956 104.037929,824.004856 102.998478,822.349068 L102.998478,822.349068 L64.3348066,760.759956 L64.981423,819.265345 L64.981423,819.265345 L64.98177,819.328138 C64.98177,822.466119 62.4379333,825.009956 59.2999518,825.009956 L59.2999518,825.009956 L45.0208497,825.009956 C41.8828682,825.009956 39.3390315,822.466119 39.3390315,819.328138 L39.3390315,819.328138 L39.3390315,725.503721 C39.3390315,722.365739 41.8828682,719.821903 45.0208497,719.821903 L45.0208497,719.821903 Z M227.503167,719.821903 C230.641149,719.821903 233.184985,722.365739 233.184985,725.503721 L233.184985,725.503721 L233.184985,737.736323 C233.184985,740.874305 230.641149,743.418142 227.503167,743.418142 L227.503167,743.418142 L200.520052,743.418142 L200.520052,759.764934 L226.509017,759.764934 C229.646999,759.764934 232.190835,762.30877 232.190835,765.446752 L232.190835,765.446752 L232.190835,777.679354 C232.190835,780.817336 229.646999,783.361173 226.509017,783.361173 L226.509017,783.361173 L200.520052,783.361173 L200.520052,801.413717 L227.503167,801.413717 C230.641149,801.413717 233.184985,803.957553 233.184985,807.095535 L233.184985,807.095535 L233.184985,819.328138 C233.184985,822.466119 230.641149,825.009956 227.503167,825.009956 L227.503167,825.009956 L180.495988,825.009956 C177.358006,825.009956 174.81417,822.466119 174.81417,819.328138 L174.81417,819.328138 L174.81417,725.503721 C174.81417,722.365739 177.358006,719.821903 180.495988,719.821903 L180.495988,719.821903 Z M339.556466,719.821903 C342.694447,719.821903 345.238284,722.365739 345.238284,725.503721 L345.238284,725.503721 L345.238284,737.736323 C345.238284,740.874305 342.694447,743.418142 339.556466,743.418142 L339.556466,743.418142 L324.645174,743.418142 L324.645174,819.328138 C324.645174,822.466119 322.101337,825.009956 318.963356,825.009956 L318.963356,825.009956 L303.484938,825.009956 C300.346957,825.009956 297.80312,822.466119 297.80312,819.328138 L297.80312,819.328138 L297.80312,743.418142 L282.749806,743.418142 C279.611825,743.418142 277.067988,740.874305 277.067988,737.736323 L277.067988,737.736323 L277.067988,725.503721 C277.067988,722.365739 279.611825,719.821903 282.749806,719.821903 L282.749806,719.821903 Z M407.105499,719.821903 C409.802347,719.821903 412.127646,721.717683 412.670862,724.359255 L412.670862,724.359255 L425.79792,788.194137 L425.867507,788.187293 C426.002977,788.160315 426.113245,788.055973 426.144686,787.917106 L426.144686,787.917106 L440.559941,724.249043 C441.146132,721.66 443.446923,719.821903 446.101496,719.821903 L446.101496,719.821903 L457.593681,719.821903 C460.258536,719.821903 462.56534,721.673954 463.141236,724.275837 L463.141236,724.275837 L477.351706,788.478429 L477.420988,788.471528 C477.555768,788.444334 477.66483,788.339236 477.693839,788.20039 L477.693839,788.20039 L491.035604,724.341728 C491.585764,721.708459 493.907206,719.821903 496.597333,719.821903 L496.597333,719.821903 L511.725015,719.821903 C512.215666,719.821903 512.704251,719.885457 513.178575,720.010978 C516.212133,720.813757 518.020536,723.923722 517.217758,726.95728 L517.217758,726.95728 L492.388744,820.781697 C491.729181,823.274069 489.474167,825.009956 486.896001,825.009956 L486.896001,825.009956 L472.210858,825.009956 C469.566619,825.009956 467.27191,823.185838 466.675468,820.609745 L466.675468,820.609745 L451.929867,756.922013 L451.860192,756.92884 C451.724522,756.955754 451.613905,757.059873 451.581754,757.198736 L451.581754,757.198736 L436.900223,820.609745 C436.30378,823.185838 434.009071,825.009956 431.364833,825.009956 L431.364833,825.009956 L415.998244,825.009956 C413.406715,825.009956 411.143561,823.256386 410.496425,820.746957 L410.496425,820.746957 L386.300804,726.92254 C386.181284,726.45907 386.120805,725.982354 386.120805,725.503721 C386.120805,722.365739 388.664641,719.821903 391.802623,719.821903 L391.802623,719.821903 Z M739.105687,719.821903 C750.041339,719.821903 758.420604,721.243363 763.959441,723.659845 C775.321157,728.777102 783.274358,741.143805 783.274358,756.069137 C783.274358,772.700221 773.332857,786.346239 757.142411,789.189159 C768.316991,803.211369 776.697926,813.728026 782.285216,820.739131 L782.285216,820.739131 L782.402669,820.898456 C782.698932,821.333715 782.858679,821.849331 782.858679,822.378882 C782.858679,823.831984 781.680707,825.009956 780.227605,825.009956 L780.227605,825.009956 L757.934703,825.009956 C756.100508,825.009956 754.379126,824.124511 753.31246,822.632367 L753.31246,822.632367 L730.726422,791.037058 L730.442379,791.037058 L730.442379,819.328138 C730.442379,822.466119 727.898542,825.009956 724.760561,825.009956 L724.760561,825.009956 L710.418315,825.009956 C707.280333,825.009956 704.736497,822.466119 704.736497,819.328138 L704.736497,819.328138 L704.736497,725.503721 C704.736497,722.365739 707.280333,719.821903 710.418315,719.821903 L710.418315,719.821903 Z M848.158026,719.821903 C851.296007,719.821903 853.839844,722.365739 853.839844,725.503721 L853.839844,725.503721 L853.839844,767.156527 L853.926909,767.149099 C854.069397,767.124589 854.196543,767.040662 854.274789,766.915884 L854.274789,766.915884 L882.136291,722.485175 C883.175454,720.828024 884.993945,719.821903 886.949963,719.821903 L886.949963,719.821903 L901.339104,719.821903 C902.456419,719.821903 903.548936,720.151329 904.480011,720.768981 C907.094935,722.503656 907.808518,726.029703 906.073843,728.644628 L906.073843,728.644628 L877.131362,772.273783 L907.908729,816.060827 C908.581248,817.017621 908.942135,818.158635 908.942135,819.328138 C908.942135,822.466119 906.398298,825.009956 903.260316,825.009956 L903.260316,825.009956 L885.946197,825.009956 C883.995417,825.009956 882.181032,824.009177 881.14037,822.359158 L881.14037,822.359158 L854.123887,779.52323 L854.058758,779.530732 C853.933275,779.560171 853.839844,779.672811 853.839844,779.807273 L853.839844,779.807273 L853.839844,819.328138 C853.839844,822.466119 851.296007,825.009956 848.158026,825.009956 L848.158026,825.009956 L832.679608,825.009956 C829.541627,825.009956 826.99779,822.466119 826.99779,819.328138 L826.99779,819.328138 L826.99779,725.503721 C826.99779,722.365739 829.541627,719.821903 832.679608,719.821903 L832.679608,719.821903 Z M605.039064,741.428097 C588.280533,741.428097 576.492753,755.500553 576.492753,772.131637 C576.492753,789.473451 588.280533,803.403761 605.465128,803.403761 C622.081638,803.403761 633.727397,789.331305 633.727397,772.558075 C633.727397,756.069137 621.939617,741.428097 605.039064,741.428097 Z M740.667923,743.418142 L730.442379,743.418142 L730.442379,772.700221 L740.38388,772.700221 C751.035489,772.700221 757.568476,767.725111 757.568476,757.632743 C757.568476,748.535398 750.751446,743.418142 740.667923,743.418142 L740.667923,743.418142 Z M761.132272,570 C783.162834,570 804.458179,583.858731 812.156622,602.804349 L812.385733,603.380007 L812.454915,603.579142 C812.537132,603.847625 812.5791,604.127223 812.5791,604.408792 C812.5791,605.915699 811.402755,607.147855 809.918268,607.237083 L809.745663,607.242257 L786.671264,607.242257 C784.793497,607.242257 783.036998,606.314509 781.978405,604.763577 C781.725487,604.393031 781.50051,604.078995 781.303475,603.82147 C776.295402,597.275895 769.09407,593.596239 760.422164,593.596239 C743.521612,593.596239 731.733832,607.242257 731.733832,624.157633 C731.733832,641.641593 742.811505,655.714049 760.564186,655.714049 C772.913289,655.714049 782.21187,649.746434 785.582731,639.182501 L785.701982,638.798673 L759.99706,638.798673 C756.932055,638.798673 754.433881,636.371778 754.319345,633.334795 L754.315242,633.116854 L754.315242,623.016442 C754.315242,619.951437 756.742137,617.453263 759.77912,617.338727 L759.99706,617.334624 L811.122862,617.334624 C814.187867,617.334624 816.686041,619.761518 816.800577,622.798502 L816.80468,623.016442 L816.80468,623.304757 C816.80468,651.591814 796.069548,679.310288 760.706207,679.310288 C729.60351,679.310288 704.891778,655.003319 704.891778,624.157633 C704.891778,592.316925 730.59766,570 761.132272,570 Z M868.78453,570 C875.743581,570 881.850504,571.563606 887.38934,574.406527 C897.790625,579.809396 903.187536,587.411235 904.032692,599.703624 L904.065696,600.22582 L904.068602,600.293007 L904.069571,600.36025 C904.069571,601.595234 903.110134,602.606129 901.895968,602.688204 L901.736212,602.693584 L879.874889,602.693584 C878.650066,602.693603 877.579233,601.888392 877.230371,600.728484 L877.185507,600.560419 L877.103899,600.223149 C875.685995,594.559605 872.708641,592.459071 868.074423,592.459071 C863.103672,592.459071 858.843029,596.012721 858.843029,600.70354 C858.843029,606.957965 864.523887,609.800885 876.027624,614.775996 C899.177121,624.726217 905,633.112832 905,646.900996 C905,667.227876 891.081898,679.168142 868.358466,679.168142 C845.721667,679.168142 830.740606,667.465487 830.443248,645.301496 L830.438739,644.626659 L830.443986,644.470944 C830.520527,643.338946 831.425362,642.434111 832.55736,642.35757 L832.713075,642.352323 L855.284704,642.352323 C856.244124,642.352316 857.052551,643.047507 857.209209,643.978566 L857.229198,644.135848 L857.263356,644.498466 C858.023066,651.949348 862.109201,656.709071 868.216445,656.709071 C873.755281,656.709071 878.299968,652.302544 878.299968,646.616704 C878.299968,640.308242 871.710638,636.653911 864.395194,633.596758 L863.685177,633.3027 L863.685177,633.3027 L862.993464,633.020721 C862.877975,632.973964 862.7624,632.92732 862.646761,632.880783 L861.952338,632.602771 C861.720727,632.510483 861.489039,632.418557 861.257453,632.326931 L860.563185,632.052885 C860.331985,631.961793 860.101067,631.870938 859.87061,631.780256 L859.180804,631.508665 C858.492742,631.237468 857.810449,630.967263 857.138772,630.69635 C839.954176,623.731195 832.142996,614.63385 832.142996,600.987832 C832.142996,583.077434 849.469613,570 868.78453,570 Z M615.934391,571.990044 C617.82601,571.990044 619.587736,572.930878 620.641182,574.489196 L620.774523,574.69593 L660.013,638.514381 L658.975525,577.768888 C658.974973,577.736549 658.974697,577.704206 658.974697,577.671862 C658.974697,574.606857 661.401591,572.108684 664.438574,571.994147 L664.656515,571.990044 L678.900892,571.990044 C681.965897,571.990044 684.464071,574.416939 684.578608,577.453922 L684.58271,577.671862 L684.58271,671.496279 C684.58271,674.561284 682.155816,677.059458 679.118833,677.173994 L678.900892,677.178097 L664.432949,677.178097 C662.562931,677.178097 660.818545,676.258498 659.760714,674.729462 L659.620772,674.517209 L620.957101,612.928097 L621.603717,671.433486 C621.603949,671.454416 621.604064,671.475348 621.604064,671.496279 C621.604064,674.561284 619.17717,677.059458 616.140187,677.173994 L615.922246,677.178097 L601.643144,677.178097 C598.578139,677.178097 596.079965,674.751203 595.965429,671.71422 L595.961326,671.496279 L595.961326,577.671862 C595.961326,574.606857 598.38822,572.108684 601.425204,571.994147 L601.643144,571.990044 L615.934391,571.990044 Z M93.4884776,571.990044 C96.5534828,571.990044 99.0516564,574.416939 99.1661929,577.453922 L99.1702957,577.671862 L99.1702957,589.904465 C99.1702957,592.96947 96.7434013,595.467644 93.706418,595.58218 L93.4884776,595.586283 L78.5771856,595.586283 L78.5771856,671.496279 C78.5771856,674.561284 76.1502911,677.059458 73.1133078,677.173994 L72.8953674,677.178097 L57.4169498,677.178097 C54.3519446,677.178097 51.8537709,674.751203 51.7392345,671.71422 L51.7351316,671.496279 L51.7351316,595.586283 L36.6818182,595.586283 C33.616813,595.586283 31.1186393,593.159389 31.0041028,590.122405 L31,589.904465 L31,577.671862 C31,574.606857 33.4268945,572.108684 36.4638778,571.994147 L36.6818182,571.990044 L93.4884776,571.990044 Z M136.80502,571.990044 C139.870025,571.990044 142.368199,574.416939 142.482735,577.453922 L142.486838,577.671862 L142.486838,611.506637 L176.856029,611.506637 L176.856029,577.671862 C176.856029,574.606857 179.282923,572.108684 182.319906,571.994147 L182.537847,571.990044 L198.016264,571.990044 C201.08127,571.990044 203.579443,574.416939 203.69398,577.453922 L203.698083,577.671862 L203.698083,671.496279 C203.698083,674.561284 201.271188,677.059458 198.234205,677.173994 L198.016264,677.178097 L182.537847,677.178097 C179.472842,677.178097 176.974668,674.751203 176.860131,671.71422 L176.856029,671.496279 L176.856029,635.102876 L142.486838,635.102876 L142.486838,671.496279 C142.486838,674.561284 140.059943,677.059458 137.02296,677.173994 L136.80502,677.178097 L121.326602,677.178097 C118.261597,677.178097 115.763423,674.751203 115.648887,671.71422 L115.644784,671.496279 L115.644784,577.671862 C115.644784,574.606857 118.071678,572.108684 121.108662,571.994147 L121.326602,571.990044 L136.80502,571.990044 Z M281.098812,571.990044 C284.163818,571.990044 286.661991,574.416939 286.776528,577.453922 L286.78063,577.671862 L286.78063,589.904465 C286.78063,592.96947 284.353736,595.467644 281.316753,595.58218 L281.098812,595.586283 L254.115697,595.586283 L254.115697,611.933075 L280.104662,611.933075 C283.169667,611.933075 285.667841,614.35997 285.782377,617.396953 L285.78648,617.614893 L285.78648,629.847496 C285.78648,632.912501 283.359586,635.410675 280.322603,635.525211 L280.104662,635.529314 L254.115697,635.529314 L254.115697,653.581858 L281.098812,653.581858 C284.163818,653.581858 286.661991,656.008753 286.776528,659.045736 L286.78063,659.263677 L286.78063,671.496279 C286.78063,674.561284 284.353736,677.059458 281.316753,677.173994 L281.098812,677.178097 L234.091633,677.178097 C231.026628,677.178097 228.528454,674.751203 228.413918,671.71422 L228.409815,671.496279 L228.409815,577.671862 C228.409815,574.606857 230.836709,572.108684 233.873693,571.994147 L234.091633,571.990044 L281.098812,571.990044 Z M409.486203,571.990044 C412.551208,571.990044 415.049381,574.416939 415.163918,577.453922 L415.168021,577.671862 L415.168021,589.904465 C415.168021,592.96947 412.741126,595.467644 409.704143,595.58218 L409.486203,595.586283 L394.574911,595.586283 L394.574911,671.496279 C394.574911,674.561284 392.148016,677.059458 389.111033,677.173994 L388.893092,677.178097 L373.414675,677.178097 C370.34967,677.178097 367.851496,674.751203 367.73696,671.71422 L367.732857,671.496279 L367.732857,595.586283 L352.679543,595.586283 C349.614538,595.586283 347.116364,593.159389 347.001828,590.122405 L346.997725,589.904465 L346.997725,577.671862 C346.997725,574.606857 349.42462,572.108684 352.461603,571.994147 L352.679543,571.990044 L409.486203,571.990044 Z M452.802745,571.990044 C455.86775,571.990044 458.365924,574.416939 458.48046,577.453922 L458.484563,577.671862 L458.484563,611.506637 L492.853754,611.506637 L492.853754,577.671862 C492.853754,574.606857 495.280648,572.108684 498.317631,571.994147 L498.535572,571.990044 L514.013989,571.990044 C517.078995,571.990044 519.577168,574.416939 519.691705,577.453922 L519.695808,577.671862 L519.695808,671.496279 C519.695808,674.561284 517.268913,677.059458 514.23193,677.173994 L514.013989,677.178097 L498.535572,677.178097 C495.470567,677.178097 492.972393,674.751203 492.857857,671.71422 L492.853754,671.496279 L492.853754,635.102876 L458.484563,635.102876 L458.484563,671.496279 C458.484563,674.561284 456.057668,677.059458 453.020685,677.173994 L452.802745,677.178097 L437.324327,677.178097 C434.259322,677.178097 431.761148,674.751203 431.646612,671.71422 L431.642509,671.496279 L431.642509,577.671862 C431.642509,574.606857 434.069403,572.108684 437.106387,571.994147 L437.324327,571.990044 L452.802745,571.990044 Z M565.567776,571.990044 C568.632781,571.990044 571.130954,574.416939 571.245491,577.453922 L571.249594,577.671862 L571.249594,671.496279 C571.249594,674.561284 568.822699,677.059458 565.785716,677.173994 L565.567776,677.178097 L550.089358,677.178097 C547.024353,677.178097 544.526179,674.751203 544.411643,671.71422 L544.40754,671.496279 L544.40754,577.671862 C544.40754,574.606857 546.834434,572.108684 549.871418,571.994147 L550.089358,571.990044 L565.567776,571.990044 Z" id="wording" fill="#000000" fill-rule="nonzero"></path>
                <path d="M511.194171,-6.25277607e-13 C601.725275,-6.25277607e-13 676.273216,68.3815172 685.932321,156.274995 C702.004834,147.736943 720.350306,142.900209 739.826293,142.900209 C776.789029,142.900209 809.679786,160.321546 830.723957,187.395355 L831.014961,187.396156 L831.01749,187.774615 C845.964891,207.170547 854.853787,231.469361 854.853787,257.842755 C854.853787,266.605624 853.872472,275.139464 852.013663,283.340531 C899.642827,293.048811 935.478706,335.149238 935.478706,385.613402 C935.478706,442.688017 889.639417,489.064199 832.74246,489.986015 L831.014961,490 L131.145709,488.880458 C125.878959,489.618425 120.497821,490 115.027495,490 C51.4995635,490 0,438.538469 0,375.057454 C0,311.576439 51.4995635,260.114909 115.027495,260.114909 C115.155085,260.114909 115.282627,260.115116 115.410119,260.115531 L115.406385,259.76648 C115.406385,173.647553 185.241846,103.834368 271.388252,103.834368 C297.553459,103.834368 322.213955,110.274748 343.870007,121.656254 C366.663679,51.0650987 432.961072,-6.25277607e-13 511.194171,-6.25277607e-13 Z M745.327556,75.3889382 C758.025204,76.3183776 770.547439,78.4998378 782.740991,81.8849547 C807.242925,88.6870677 830.155521,100.278951 850.170552,115.911266 C870.185582,131.54358 886.979895,150.963935 899.509681,173.084662 C905.745213,184.093189 910.891973,195.711723 914.86594,207.803295 C917.931447,217.130697 912.852644,227.17695 903.522116,230.242227 C894.191589,233.307505 884.142619,228.231049 881.077112,218.903646 C877.837651,209.046952 873.643348,199.57854 868.560877,190.605685 C858.338827,172.559155 844.625039,156.70101 828.273021,143.929614 C811.921003,131.158217 793.211187,121.692594 773.222019,116.143294 C763.715393,113.504109 753.965275,111.762829 744.076909,110.95334 L742.727648,110.848734 C732.93272,110.131767 725.57437,101.612605 726.292315,91.8206528 C727.01026,82.0287006 735.532628,74.6719714 745.327556,75.3889382 Z M754.402749,13.5611508 C770.630932,14.7490175 786.634488,17.5369478 802.218246,21.8632383 C833.535292,30.5573307 862.823575,45.3747858 888.409281,65.3579581 C913.994987,85.3411303 935.462505,110.165417 951.4774,138.438932 C959.446614,152.508191 966.024231,167.356806 971.103145,182.810395 C974.168651,192.137798 969.089848,202.18405 959.759321,205.249328 C950.533631,208.280164 940.605552,203.3512 937.420283,194.223538 L937.314317,193.910747 C932.969909,180.692035 927.344749,167.993541 920.528596,155.959955 C906.821438,131.760636 888.434443,110.49856 866.51175,93.3763059 C844.589057,76.2540517 819.503554,63.5628566 792.699275,56.1215776 C779.370322,52.4212556 765.684126,50.0370255 751.802841,49.0209465 C742.007913,48.3039797 734.649564,39.7848176 735.367509,29.9928654 C736.085453,20.2009132 744.607821,12.844184 754.402749,13.5611508 Z" id="Combined-Shape" fill="url(#linearGradient-1)"></path>
            </g>
        </g>
    </g>
</svg>