<?xml version="1.0" encoding="UTF-8"?>
<svg width="800px" height="117px" viewBox="0 0 800 117" version="1.1" xmlns="http://www.w3.org/2000/svg" xmlns:xlink="http://www.w3.org/1999/xlink">
    <title>TTS_Cloud</title>
    <g id="Page-1" stroke="none" stroke-width="1" fill="none" fill-rule="evenodd">
        <g id="Artboard" transform="translate(-849.000000, -828.000000)">
            <g id="TTS_Cloud" transform="translate(849.000000, 828.000000)">
                <path d="M288.690599,104.527369 C298.232126,104.527369 304.56049,98.3557445 305.67726,90.6950934 L298.349681,90.6559085 C297.428836,95.3580984 293.588714,98.0030802 288.788562,98.0030802 C282.283866,98.0030802 277.620861,93.1245582 277.620861,83.916103 C277.620861,74.8643875 282.244681,69.8291259 288.808154,69.8291259 C293.686676,69.8291259 297.507205,72.5916624 298.349681,77.3918146 L305.67726,77.3918146 C304.442935,68.4772463 297.585575,63.3048374 288.690599,63.3048374 C278.208634,63.3048374 270.312874,70.945896 270.312874,83.916103 C270.312874,96.8667177 278.110672,104.527369 288.690599,104.527369 Z M319.137318,103.97878 L319.137318,63.8534263 L312.044848,63.8534263 L312.044848,103.97878 L319.137318,103.97878 Z M339.552673,104.566554 C348.369279,104.566554 353.972722,98.3557445 353.972722,89.049327 C353.972722,79.7233171 348.369279,73.4929155 339.552673,73.4929155 C330.736067,73.4929155 325.132624,79.7233171 325.132624,89.049327 C325.132624,98.3557445 330.736067,104.566554 339.552673,104.566554 Z M339.591858,98.8847408 C334.713336,98.8847408 332.323056,94.5352152 332.323056,89.0297345 C332.323056,83.5242539 334.713336,79.1159509 339.591858,79.1159509 C344.39201,79.1159509 346.78229,83.5242539 346.78229,89.0297345 C346.78229,94.5352152 344.39201,98.8847408 339.591858,98.8847408 Z M369.999384,104.370629 C374.505649,104.370629 377.679628,101.999942 379.0511,98.6300389 L379.364579,98.6300389 L379.364579,103.97878 L386.241532,103.97878 L386.241532,73.8847647 L379.149062,73.8847647 L379.149062,91.3220521 C379.149062,95.9066872 375.877121,98.1794123 372.742328,98.1794123 C369.333241,98.1794123 367.060515,95.76954 367.060515,91.9490107 L367.060515,73.8847647 L359.968046,73.8847647 L359.968046,93.0461884 C359.968046,100.275805 364.082462,104.370629 369.999384,104.370629 Z M404.697659,104.507776 C409.870068,104.507776 412.20157,101.43176 413.31834,99.2374051 L413.749374,99.2374051 L413.749374,103.97878 L420.724289,103.97878 L420.724289,63.8534263 L413.612227,63.8534263 L413.612227,78.8612489 L413.31834,78.8612489 C412.240755,76.6864861 410.026807,73.4929155 404.717251,73.4929155 C397.761929,73.4929155 392.295633,78.9396188 392.295633,88.9709572 C392.295633,98.8847408 397.605189,104.507776 404.697659,104.507776 Z M406.676497,98.6888162 C401.9939,98.6888162 399.52525,94.5744001 399.52525,88.9317722 C399.52525,83.3283293 401.954715,79.3118755 406.676497,79.3118755 C411.24154,79.3118755 413.749374,83.0932198 413.749374,88.9317722 C413.749374,94.7703247 411.202355,98.6888162 406.676497,98.6888162 Z" id="Cloud" fill="#0032B4" fill-rule="nonzero"></path>
                <path d="M544.350133,6.36604775 C552.534624,6.36604775 560.447464,11.4821624 563.36229,18.4937742 L563.495244,18.8238195 L563.535208,18.9486389 C563.556621,19.0332624 563.567513,19.1203772 563.567513,19.2080042 C563.567513,19.7530064 563.155156,20.2016973 562.625418,20.2590577 L562.510213,20.265252 L553.889164,20.265252 C553.188164,20.265252 552.532396,19.9190579 552.136983,19.3402244 C552.042496,19.2019146 551.95845,19.0846992 551.884842,18.9885781 C550.014137,16.5457003 547.324166,15.1724138 544.084881,15.1724138 C537.771883,15.1724138 533.3687,20.265252 533.3687,26.5782493 C533.3687,33.1034483 537.506631,38.3554377 544.137931,38.3554377 C548.700265,38.3554377 552.147938,36.1767817 553.441137,32.3146188 L553.527851,32.0424403 L543.925729,32.0424403 C542.804727,32.0424403 541.886747,31.1731993 541.809042,30.0719701 L541.803714,29.9204244 L541.803714,26.1538462 C541.803714,25.0328438 542.672955,24.1148635 543.774184,24.0371582 L543.925729,24.0318302 L563.023873,24.0318302 C564.144875,24.0318302 565.062855,24.9010713 565.140561,26.0023004 L565.145889,26.1538462 L565.145889,26.2599469 C565.145889,36.8169761 557.400531,47.1618037 544.190981,47.1618037 C532.572944,47.1618037 523.342175,38.0901857 523.342175,26.5782493 C523.342175,14.6949602 532.944297,6.36604775 544.350133,6.36604775 Z M633.952255,6.36604775 C636.551724,6.36604775 638.832891,6.94960212 640.901857,8.01061008 C644.841853,10.0554183 646.859499,12.9441856 647.131108,17.6466435 L647.131108,17.6466435 L647.132195,17.6717383 L647.132195,17.6717383 L647.132557,17.696854 C647.132557,18.1777611 646.742705,18.5676133 646.261797,18.5676393 L646.261797,18.5676393 L638.094272,18.5676393 C637.615332,18.5676682 637.199453,18.237864 637.090338,17.7715195 L637.090338,17.7715195 L637.032656,17.5401981 C636.492655,15.5058228 635.388965,14.7480106 633.687003,14.7480106 C631.830239,14.7480106 630.238727,16.0742706 630.238727,17.8249337 C630.238727,20.1591512 632.360743,21.2201592 636.657825,23.0769231 C645.30504,26.7904509 647.480106,29.9204244 647.480106,35.066313 C647.480106,42.6525199 642.281167,47.1087533 633.793103,47.1087533 C625.251989,47.1087533 619.628647,42.6525199 619.628647,34.2175066 L619.628647,34.2175066 L619.635261,34.1110342 C619.687638,33.6925073 620.044731,33.3687003 620.477454,33.3687003 L620.477454,33.3687003 L628.91016,33.3687003 C629.288117,33.368717 629.603295,33.6577825 629.6359,34.0343305 L629.6359,34.0343305 L629.661942,34.2913335 C629.977362,37.0021229 631.492216,38.7267905 633.740053,38.7267905 C635.809019,38.7267905 637.506631,37.0822281 637.506631,34.9602122 C637.506631,31.8302387 633.156499,30.4509284 629.602122,29.0185676 C623.183024,26.4190981 620.265252,23.0238727 620.265252,17.9310345 C620.265252,11.2466844 626.737401,6.36604775 633.952255,6.36604775 Z M739.95756,6.36604775 C745.3687,6.36604775 749.718833,7.85145889 753.644562,11.193634 C756.684408,13.7992156 758.728902,16.6891833 759.748946,19.863537 L759.871114,20.2618124 L759.901586,20.3880149 C759.917882,20.4729706 759.926113,20.5593752 759.926113,20.6460743 C759.926113,21.3581191 759.382841,21.9432759 758.688188,22.0096459 L758.556262,22.0159151 L751.130081,22.0159151 C750.327059,22.0159151 749.592826,21.5626217 749.233005,20.8447259 C749.170149,20.7193149 749.112559,20.6100513 749.060236,20.5169352 C747.158833,17.1331424 743.860317,15.1724138 740.275862,15.1724138 C734.015915,15.1724138 729.771883,20.530504 729.771883,26.6312997 C729.771883,32.9973475 734.122016,38.3023873 740.328912,38.3023873 C743.906439,38.3023873 747.012177,36.5010137 749.106224,32.936831 C749.137028,32.8844011 749.170359,32.8259564 749.206218,32.7614968 C749.553907,32.1364989 750.190715,31.7320048 750.896591,31.677415 L751.060611,31.6710875 L758.729674,31.6710875 C758.854924,31.6710998 758.97934,31.691484 759.098043,31.7314532 C759.661962,31.9213348 759.982559,32.5043312 759.857391,33.0724563 L759.823673,33.193821 L759.691386,33.5749556 C756.710332,41.9124786 749.078505,47.1087533 740.435013,47.1087533 C734.970822,47.1087533 729.824934,45.198939 725.793103,41.2201592 C721.549072,37.0822281 719.745358,32.0954907 719.745358,26.1538462 C719.745358,15.7559682 728.710875,6.36604775 739.95756,6.36604775 Z M584.562334,6.36604775 C587.161804,6.36604775 589.442971,6.94960212 591.511936,8.01061008 C595.348249,10.0016076 597.362055,12.7927296 597.716114,17.2791472 L597.741188,17.6466435 L597.742274,17.6717383 L597.742636,17.696854 C597.742636,18.1407682 597.410455,18.5070972 596.981103,18.5608493 L596.871877,18.5676393 L588.704351,18.5676393 C588.265323,18.5676658 587.879284,18.2905409 587.733946,17.8851491 L587.700417,17.7715195 L587.642735,17.5401981 C587.102735,15.5058228 585.999045,14.7480106 584.297082,14.7480106 C582.440318,14.7480106 580.848806,16.0742706 580.848806,17.8249337 C580.848806,20.1591512 582.970822,21.2201592 587.267905,23.0769231 C595.915119,26.7904509 598.090186,29.9204244 598.090186,35.066313 C598.090186,42.6525199 592.891247,47.1087533 584.403183,47.1087533 C575.980696,47.1087533 570.395494,42.7754445 570.241974,34.5666617 L570.238727,34.2175066 L570.24534,34.1110342 C570.293352,33.7273846 570.597411,33.4233259 570.981061,33.3753137 L571.087533,33.3687003 L579.52024,33.3687003 C579.863837,33.3687154 580.15555,33.607614 580.230246,33.9339561 L580.245979,34.0343305 L580.272022,34.2913335 C580.587442,37.0021229 582.102295,38.7267905 584.350133,38.7267905 C586.419098,38.7267905 588.116711,37.0822281 588.116711,34.9602122 C588.116711,32.4562334 585.332626,31.072679 582.399151,29.8860477 L581.909307,29.6899409 C581.337263,29.4629073 580.765105,29.2413793 580.212202,29.0185676 C573.793103,26.4190981 570.875332,23.0238727 570.875332,17.9310345 C570.875332,11.2466844 577.34748,6.36604775 584.562334,6.36604775 Z M674.69496,7.10875332 C675.866917,7.10875332 676.816976,8.0588122 676.816976,9.23076923 L676.816976,9.23076923 L676.816976,13.7931034 C676.816976,14.9650605 675.866917,15.9151194 674.69496,15.9151194 L674.69496,15.9151194 L669.124668,15.9151194 L669.124668,44.2440318 C669.124668,45.4159889 668.17461,46.3660477 667.002653,46.3660477 L667.002653,46.3660477 L661.220159,46.3660477 C660.048202,46.3660477 659.098143,45.4159889 659.098143,44.2440318 L659.098143,44.2440318 L659.098143,15.9151194 L653.474801,15.9151194 C652.302844,15.9151194 651.352785,14.9650605 651.352785,13.7931034 L651.352785,13.7931034 L651.352785,9.23076923 C651.352785,8.0588122 652.302844,7.10875332 653.474801,7.10875332 L653.474801,7.10875332 Z M700.787831,7.10875332 C701.657338,7.10875332 702.438862,7.63920126 702.759905,8.44726922 L702.759905,8.44726922 L716.67058,43.4605318 C716.769642,43.7098712 716.820521,43.9757347 716.820521,44.2440318 C716.820521,45.4159889 715.870462,46.3660477 714.698505,46.3660477 L714.698505,46.3660477 L708.474553,46.3660477 C707.56336,46.3660477 706.753884,45.7843314 706.46332,44.9207085 L706.46332,44.9207085 L705.039788,40.6896552 L691.405836,40.6896552 L689.84545,44.9707119 C689.540077,45.8085325 688.743476,46.3660477 687.851738,46.3660477 L687.851738,46.3660477 L681.705861,46.3660477 C681.435068,46.3660477 681.166778,46.3142178 680.91547,46.2133551 C679.827843,45.7768345 679.300017,44.5412685 679.736538,43.4536413 L679.736538,43.4536413 L693.789158,8.44037866 C694.112017,7.63594951 694.89168,7.10875332 695.758481,7.10875332 L695.758481,7.10875332 Z M776.551724,7.10875332 C777.723681,7.10875332 778.67374,8.0588122 778.67374,9.23076923 L778.67374,9.23076923 L778.67374,24.7745358 L778.722049,24.7683579 C778.768811,24.7561892 778.809921,24.7266093 778.836244,24.6846688 L778.836244,24.6846688 L789.24354,8.10270892 C789.631727,7.48421013 790.310654,7.10875332 791.04088,7.10875332 L791.04088,7.10875332 L796.415266,7.10875332 C796.832847,7.10875332 797.241147,7.23195795 797.58903,7.46293721 C798.565376,8.11118906 798.83135,9.42818637 798.183098,10.404533 L798.183098,10.404533 L787.374005,26.6843501 L798.868352,43.0230574 C799.11984,43.3805368 799.254807,43.8069532 799.254807,44.2440318 C799.254807,45.4159889 798.304748,46.3660477 797.132791,46.3660477 L797.132791,46.3660477 L790.665935,46.3660477 C789.937666,46.3660477 789.260274,45.9925861 788.871528,45.3767515 L788.871528,45.3767515 L778.779841,29.3899204 L778.738542,29.3982584 C778.70046,29.4143653 778.67374,29.4520728 778.67374,29.4960212 L778.67374,29.4960212 L778.67374,44.2440318 C778.67374,45.4159889 777.723681,46.3660477 776.551724,46.3660477 L776.551724,46.3660477 L770.769231,46.3660477 C769.597274,46.3660477 768.647215,45.4159889 768.647215,44.2440318 L768.647215,44.2440318 L768.647215,9.23076923 C768.647215,8.0588122 769.597274,7.10875332 770.769231,7.10875332 L770.769231,7.10875332 Z M490.113962,7.10875332 C490.794171,7.10875332 491.429427,7.43449324 491.826894,7.9782164 L491.921195,8.11862615 L506.578249,31.9363395 L506.19074,9.26703771 L506.19043,9.23076923 C506.19043,8.10976686 507.059671,7.1917866 508.1609,7.11408133 L508.312446,7.10875332 L513.633952,7.10875332 C514.754955,7.10875332 515.672935,7.97799434 515.75064,9.07922352 L515.755968,9.23076923 L515.755968,44.2440318 C515.755968,45.3650342 514.886727,46.2830145 513.785498,46.3607197 L513.633952,46.3660477 L508.228523,46.3660477 C507.554813,46.3660477 506.924744,46.046457 506.526393,45.5112234 L506.431742,45.3729827 L491.98939,22.3872679 L492.230909,44.2205596 C492.230995,44.2283834 492.231038,44.2362076 492.231038,44.2440318 C492.231038,45.3650342 491.361797,46.2830145 490.260568,46.3607197 L490.109023,46.3660477 L484.774536,46.3660477 C483.653533,46.3660477 482.735553,45.4968067 482.657848,44.3955775 L482.65252,44.2440318 L482.65252,9.23076923 C482.65252,8.10976686 483.521761,7.1917866 484.62299,7.11408133 L484.774536,7.10875332 L490.113962,7.10875332 Z M294.960212,7.10875332 C296.081215,7.10875332 296.999195,7.97799434 297.0769,9.07922352 L297.082228,9.23076923 L297.082228,13.7931034 C297.082228,14.9141058 296.212987,15.8320861 295.111758,15.9097914 L294.960212,15.9151194 L289.38992,15.9151194 L289.38992,44.2440318 C289.38992,45.3650342 288.520679,46.2830145 287.41945,46.3607197 L287.267905,46.3660477 L281.485411,46.3660477 C280.364409,46.3660477 279.446429,45.4968067 279.368723,44.3955775 L279.363395,44.2440318 L279.363395,15.9151194 L273.740053,15.9151194 C272.619051,15.9151194 271.70107,15.0458783 271.623365,13.9446492 L271.618037,13.7931034 L271.618037,9.23076923 C271.618037,8.10976686 272.487278,7.1917866 273.588507,7.11408133 L273.740053,7.10875332 L294.960212,7.10875332 Z M311.140584,7.10875332 C312.261586,7.10875332 313.179566,7.97799434 313.257271,9.07922352 L313.262599,9.23076923 L313.262599,21.8567639 L326.100796,21.8567639 L326.100796,9.23076923 C326.100796,8.10976686 326.970037,7.1917866 328.071266,7.11408133 L328.222812,7.10875332 L334.005305,7.10875332 C335.126307,7.10875332 336.044288,7.97799434 336.121993,9.07922352 L336.127321,9.23076923 L336.127321,44.2440318 C336.127321,45.3650342 335.25808,46.2830145 334.156851,46.3607197 L334.005305,46.3660477 L328.222812,46.3660477 C327.101809,46.3660477 326.183829,45.4968067 326.106124,44.3955775 L326.100796,44.2440318 L326.100796,30.66313 L313.262599,30.66313 L313.262599,44.2440318 C313.262599,45.3650342 312.393358,46.2830145 311.292129,46.3607197 L311.140584,46.3660477 L305.35809,46.3660477 C304.237088,46.3660477 303.319108,45.4968067 303.241402,44.3955775 L303.236074,44.2440318 L303.236074,9.23076923 C303.236074,8.10976686 304.105315,7.1917866 305.206544,7.11408133 L305.35809,7.10875332 L311.140584,7.10875332 Z M365.039788,7.10875332 C366.16079,7.10875332 367.07877,7.97799434 367.156476,9.07922352 L367.161804,9.23076923 L367.161804,13.7931034 C367.161804,14.9141058 366.292563,15.8320861 365.191334,15.9097914 L365.039788,15.9151194 L354.960212,15.9151194 L354.960212,22.0159151 L364.668435,22.0159151 C365.789437,22.0159151 366.707418,22.8851561 366.785123,23.9863853 L366.790451,24.137931 L366.790451,28.7002653 C366.790451,29.8212676 365.92121,30.7392479 364.819981,30.8169532 L364.668435,30.8222812 L354.960212,30.8222812 L354.960212,37.5596817 L365.039788,37.5596817 C366.16079,37.5596817 367.07877,38.4289227 367.156476,39.5301519 L367.161804,39.6816976 L367.161804,44.2440318 C367.161804,45.3650342 366.292563,46.2830145 365.191334,46.3607197 L365.039788,46.3660477 L347.480106,46.3660477 C346.359104,46.3660477 345.441123,45.4968067 345.363418,44.3955775 L345.35809,44.2440318 L345.35809,9.23076923 C345.35809,8.10976686 346.227331,7.1917866 347.32856,7.11408133 L347.480106,7.10875332 L365.039788,7.10875332 Z M412.997347,7.10875332 C414.11835,7.10875332 415.03633,7.97799434 415.114035,9.07922352 L415.119363,9.23076923 L415.119363,13.7931034 C415.119363,14.9141058 414.250122,15.8320861 413.148893,15.9097914 L412.997347,15.9151194 L407.427056,15.9151194 L407.427056,44.2440318 C407.427056,45.3650342 406.557815,46.2830145 405.456585,46.3607197 L405.30504,46.3660477 L399.522546,46.3660477 C398.401544,46.3660477 397.483564,45.4968067 397.405859,44.3955775 L397.400531,44.2440318 L397.400531,15.9151194 L391.777188,15.9151194 C390.656186,15.9151194 389.738206,15.0458783 389.6605,13.9446492 L389.655172,13.7931034 L389.655172,9.23076923 C389.655172,8.10976686 390.524413,7.1917866 391.625643,7.11408133 L391.777188,7.10875332 L412.997347,7.10875332 Z M429.177719,7.10875332 C430.298721,7.10875332 431.216701,7.97799434 431.294407,9.07922352 L431.299735,9.23076923 L431.299735,21.8567639 L444.137931,21.8567639 L444.137931,9.23076923 C444.137931,8.10976686 445.007172,7.1917866 446.108401,7.11408133 L446.259947,7.10875332 L452.04244,7.10875332 C453.163443,7.10875332 454.081423,7.97799434 454.159128,9.07922352 L454.164456,9.23076923 L454.164456,44.2440318 C454.164456,45.3650342 453.295215,46.2830145 452.193986,46.3607197 L452.04244,46.3660477 L446.259947,46.3660477 C445.138945,46.3660477 444.220964,45.4968067 444.143259,44.3955775 L444.137931,44.2440318 L444.137931,30.66313 L431.299735,30.66313 L431.299735,44.2440318 C431.299735,45.3650342 430.430494,46.2830145 429.329265,46.3607197 L429.177719,46.3660477 L423.395225,46.3660477 C422.274223,46.3660477 421.356243,45.4968067 421.278538,44.3955775 L421.27321,44.2440318 L421.27321,9.23076923 C421.27321,8.10976686 422.142451,7.1917866 423.24368,7.11408133 L423.395225,7.10875332 L429.177719,7.10875332 Z M471.299735,7.10875332 C472.420737,7.10875332 473.338717,7.97799434 473.416423,9.07922352 L473.421751,9.23076923 L473.421751,44.2440318 C473.421751,45.3650342 472.55251,46.2830145 471.45128,46.3607197 L471.299735,46.3660477 L465.517241,46.3660477 C464.396239,46.3660477 463.478259,45.4968067 463.400553,44.3955775 L463.395225,44.2440318 L463.395225,9.23076923 C463.395225,8.10976686 464.264466,7.1917866 465.365696,7.11408133 L465.517241,7.10875332 L471.299735,7.10875332 Z M698.196286,19.3103448 L694.164456,32.7320955 L702.387268,32.7320955 L698.355438,19.3633952 L698.196286,19.3103448 Z" id="Combined-Shape-Copy-22" fill="#000000" fill-rule="nonzero"></path>
                <g id="frames">
                    <path d="M72.7893822,4.21015989 C72.8703596,4.44959208 72.9367951,4.69379271 72.9883181,4.94140005 L73.633,8.03993733 L46.5436638,17.3878909 C41.6169543,19.087799 38.7315593,24.2107523 39.7960003,29.3262178 L55.663,105.582937 L25.4060569,116.023196 C24.8209952,116.225066 24.2266164,116.332885 23.6390426,116.354646 L23.4190529,116.358787 C20.8569625,116.36041 18.4636954,114.733936 17.5893056,112.148566 C17.508328,111.909134 17.4418925,111.664933 17.3903695,111.417326 L0.132476304,28.4797584 C-0.507313,25.4050743 1.22390374,22.3313383 4.1674886,21.315686 L64.9726307,0.335529484 C65.5576925,0.133660261 66.1520712,0.0258410161 66.739645,0.00408038735 L66.9596348,-6.14589647e-05 C69.5217252,-0.00168388351 71.9149922,1.62478942 72.7893822,4.21015989 Z M74.486,12.1409373 L90.2462113,87.8789674 C90.8860006,90.9536516 89.1547839,94.0273876 86.211199,95.0430399 L59.623,104.216937 L43.8638947,28.4797584 C43.2241054,25.4050743 44.9553222,22.3313383 47.898907,21.315686 L74.486,12.1409373 Z" id="frame4" fill="#0047FF"></path>
                    <path d="M116.5208,4.21015989 C116.601778,4.44959208 116.668214,4.69379271 116.719736,4.94140005 L117.421418,8.31393733 L91.1244086,17.3878909 C86.1976991,19.087799 83.3123041,24.2107523 84.3767451,29.3262178 L100.187418,105.309937 L69.1374753,116.023196 C68.5524136,116.225066 67.9580348,116.332885 67.370461,116.354646 L67.1504713,116.358787 C64.5883808,116.36041 62.1951139,114.733936 61.320724,112.148566 C61.2397464,111.909134 61.173311,111.664933 61.121788,111.417326 L43.8638947,28.4797584 C43.2241054,25.4050743 44.9553222,22.3313383 47.898907,21.315686 L108.704049,0.335529484 C109.289111,0.133660261 109.88349,0.0258410161 110.471063,0.00408038735 L110.691053,-6.1458962e-05 C113.253143,-0.00168388351 115.64641,1.62478942 116.5208,4.21015989 Z M118.274418,12.4149373 L133.977629,87.8789674 C134.61742,90.9536516 132.886201,94.0273876 129.942618,95.0430399 L104.147418,103.942937 L88.4446395,28.4797584 C87.8048502,25.4050743 89.536067,22.3313383 92.4796518,21.315686 L118.274418,12.4149373 Z" id="frame3" fill="#1E5DFF"></path>
                    <path d="M161.101545,4.21015989 C161.182523,4.44959208 161.248958,4.69379271 161.300481,4.94140005 L161.945163,8.03993733 L134.855827,17.3878909 C129.929118,19.087799 127.043722,24.2107523 128.108164,29.3262178 L143.975163,105.582937 L113.71822,116.023196 C113.133158,116.225066 112.53878,116.332885 111.951206,116.354646 L111.731216,116.358787 C109.169126,116.36041 106.775859,114.733936 105.901469,112.148566 C105.820491,111.909134 105.754056,111.664933 105.702533,111.417326 L88.4446395,28.4797584 C87.8048502,25.4050743 89.536067,22.3313383 92.4796518,21.315686 L153.284794,0.335529484 C153.869856,0.133660261 154.464234,0.0258410161 155.051808,0.00408038735 L155.271798,-6.14589647e-05 C157.833888,-0.00168388351 160.227155,1.62478942 161.101545,4.21015989 Z M162.798163,12.1409373 L178.558375,87.8789674 C179.198164,90.9536516 177.466947,94.0273876 174.523362,95.0430399 L147.935163,104.216937 L132.176058,28.4797584 C131.536269,25.4050743 133.267485,22.3313383 136.21107,21.315686 L162.798163,12.1409373 Z" id="frame2" fill="#3D73FF"></path>
                    <path d="M204.832963,4.21015989 C204.913941,4.44959208 204.980378,4.69379271 205.0319,4.94140005 L222.289793,87.8789674 C222.929583,90.9536516 221.198365,94.0273876 218.254781,95.0430399 L157.449639,116.023196 C156.864577,116.225066 156.270198,116.332885 155.682624,116.354646 L155.462635,116.358787 C152.900544,116.36041 150.507277,114.733936 149.632887,112.148566 C149.55191,111.909134 149.485474,111.664933 149.433951,111.417326 L132.176058,28.4797584 C131.536269,25.4050743 133.267485,22.3313383 136.21107,21.315686 L197.016212,0.335529484 C197.601274,0.133660261 198.195653,0.0258410161 198.783227,0.00408038735 L199.003216,-6.14589624e-05 C201.565306,-0.00168388351 203.958573,1.62478942 204.832963,4.21015989 Z" id="frame1" fill="#6C95FF"></path>
                </g>
            </g>
        </g>
    </g>
</svg>