<?xml version="1.0" encoding="UTF-8"?>
<svg width="1535px" height="283px" viewBox="0 0 1535 283" version="1.1" xmlns="http://www.w3.org/2000/svg" xmlns:xlink="http://www.w3.org/1999/xlink">
    <title>logo_TTS_horizontal</title>
    <g id="Page-1" stroke="none" stroke-width="1" fill="none" fill-rule="evenodd">
        <g id="Artboard-Copy-25" transform="translate(-7808.000000, -8446.000000)">
            <g id="logo_TTS_horizontal" transform="translate(7808.000000, 8445.999188)">
                <g id="frames">
                    <path d="M176.721396,10.221619 C176.917997,10.8029235 177.079292,11.3958049 177.204382,11.9969574 L178.77,19.5218478 L113.000839,42.215118 C101.039548,46.3422328 94.0342537,58.7799734 96.6185525,71.199535 L135.143,256.338848 L61.6819886,281.686431 C60.160089,282.211546 58.6122223,282.474537 57.0865308,282.499268 L56.7817024,282.501045 C50.5901178,282.472859 44.8183406,278.530686 42.7041218,272.279425 C42.5075206,271.698121 42.3462256,271.10524 42.2211358,270.504087 L0.321632039,69.1444621 C-1.23167774,61.679603 2.97144956,54.217046 10.1180197,51.7511988 L157.743529,0.814613849 C159.265429,0.289498836 160.813295,0.0265074967 162.338987,0.00177647149 L162.643815,6.05682865e-12 C168.8354,0.0281858928 174.607177,3.97035811 176.721396,10.221619 Z M180.841,29.477 L189.128,69.299 L219.103886,213.356582 C220.657195,220.821441 216.454068,228.283999 209.307498,230.749846 L144.756,253.021848 L106.494773,69.1444621 C104.941463,61.679603 109.14459,54.217046 116.29116,51.7511988 L180.841,29.477 Z" id="frame4" fill="#0047FF"></path>
                    <path d="M282.894535,10.221619 C283.091137,10.8029235 283.252435,11.3958049 283.377523,11.9969574 L285.081141,20.1858478 L221.236013,42.215118 C209.274722,46.3422328 202.269428,58.7799734 204.853727,71.199535 L243.240141,255.674848 L167.855129,281.686431 C166.33323,282.211546 164.785363,282.474537 163.259671,282.499268 L162.954843,282.501045 C156.763258,282.472859 150.991481,278.530686 148.877263,272.279425 C148.680661,271.698121 148.519366,271.10524 148.394277,270.504087 L106.494773,69.1444621 C104.941463,61.679603 109.14459,54.217046 116.29116,51.7511988 L263.91667,0.814613849 C265.438569,0.289498836 266.986436,0.0265074967 268.512127,0.00177647148 L268.816956,2.30468422e-13 C275.00854,0.0281858928 280.780315,3.97035811 282.894535,10.221619 Z M287.153141,30.1418478 L295.301141,69.299 L325.277025,213.356582 C326.830338,220.821441 322.627207,228.283999 315.480641,230.749846 L252.853141,252.357848 L214.729947,69.1444621 C213.176637,61.679603 217.379765,54.217046 224.526335,51.7511988 L287.153141,30.1418478 Z" id="frame3" fill="#1E5DFF"></path>
                    <path d="M391.129711,10.221619 C391.326312,10.8029235 391.487607,11.3958049 391.612697,11.9969574 L393.178315,19.5218478 L327.409154,42.215118 C315.447863,46.3422328 308.442569,58.7799734 311.026868,71.199535 L349.551315,256.338848 L276.090304,281.686431 C274.568404,282.211546 273.020537,282.474537 271.494846,282.499268 L271.190017,282.501045 C264.998433,282.472859 259.226656,278.530686 257.112437,272.279425 C256.915836,271.698121 256.754541,271.10524 256.629451,270.504087 L214.729947,69.1444621 C213.176637,61.679603 217.379765,54.217046 224.526335,51.7511988 L372.151844,0.814613849 C373.673744,0.289498836 375.22161,0.0265074967 376.747302,0.00177647149 L377.05213,6.05682865e-12 C383.243715,0.0281858928 389.015492,3.97035811 391.129711,10.221619 Z M395.249315,29.477 L403.536315,69.299 L433.512201,213.356582 C435.06551,220.821441 430.862383,228.283999 423.715813,230.749846 L359.164315,253.021848 L320.903088,69.1444621 C319.349778,61.679603 323.552905,54.217046 330.699476,51.7511988 L395.249315,29.477 Z" id="frame2" fill="#3D73FF"></path>
                    <path d="M497.30285,10.221619 C497.499452,10.8029235 497.66075,11.3958049 497.785838,11.9969574 L539.68534,213.356582 C541.238653,220.821441 537.035522,228.283999 529.888956,230.749846 L382.263444,281.686431 C380.741545,282.211546 379.193678,282.474537 377.667986,282.499268 L377.363158,282.501045 C371.171573,282.472859 365.399796,278.530686 363.285578,272.279425 C363.088976,271.698121 362.927681,271.10524 362.802592,270.504087 L320.903088,69.1444621 C319.349778,61.679603 323.552905,54.217046 330.699476,51.7511988 L478.324985,0.814613849 C479.846884,0.289498836 481.394751,0.0265074967 482.920442,0.00177647148 L483.225271,-1.390138e-13 C489.416855,0.0281858928 495.18863,3.97035811 497.30285,10.221619 Z" id="frame1" fill="#6C95FF"></path>
                </g>
                <path d="M699.345791,160.832671 C706.304842,160.832671 712.411765,162.396277 717.950601,165.239197 C728.498383,170.718164 733.89983,178.458478 734.626956,191.05849 L734.626956,191.05849 L734.629863,191.125678 L734.629863,191.125678 L734.630832,191.192921 C734.630832,192.4816 733.586152,193.52628 732.297473,193.526255 L732.297473,193.526255 L710.43615,193.526255 C709.153002,193.526274 708.038859,192.64255 707.746768,191.39309 L707.746768,191.39309 L707.665159,191.05582 C706.247256,185.392276 703.269902,183.291742 698.635684,183.291742 C693.664933,183.291742 689.40429,186.845392 689.40429,191.536211 C689.40429,197.790635 695.085148,200.633556 706.588885,205.608666 C729.738382,215.558888 735.561261,223.945503 735.561261,237.733666 C735.561261,258.060547 721.643159,270.000812 698.919727,270.000812 C676.054274,270.000812 661,258.060547 661,235.45933 L661,235.45933 L661.005247,235.303615 C661.085267,234.120162 662.070592,233.184994 663.274336,233.184994 L663.274336,233.184994 L685.845965,233.184994 C686.858686,233.184987 687.703171,233.959567 687.790459,234.968519 L687.790459,234.968519 L687.824617,235.331137 C688.584327,242.782019 692.670461,247.541742 698.777706,247.541742 C704.316542,247.541742 708.861228,243.135215 708.861228,237.449374 C708.861228,230.937414 701.839924,227.25358 694.246438,224.13537 L693.554725,223.853392 C692.977282,223.619604 692.397677,223.388668 691.818714,223.159601 L691.124446,222.885556 C689.968444,222.430098 688.819496,221.980543 687.700032,221.52902 C670.515437,214.563866 662.704257,205.46652 662.704257,191.820503 C662.704257,173.910104 680.030874,160.832671 699.345791,160.832671 Z M988.133052,160.832671 C1002.61924,160.832671 1014.265,164.812759 1024.77459,173.767958 C1033.06737,180.882292 1038.59315,188.787888 1041.26951,197.484748 L1041.44371,198.065711 L1041.50788,198.318535 C1041.56299,198.573318 1041.59086,198.833491 1041.59086,199.094661 C1041.59086,201.056726 1040.0516,202.659277 1038.11477,202.760655 L1037.91981,202.765746 L1018.04502,202.765746 C1015.89413,202.765746 1013.92763,201.551191 1012.96456,199.627954 C1012.79622,199.291773 1012.64199,198.998888 1012.50187,198.749301 C1007.41161,189.682589 998.581141,184.42891 988.98518,184.42891 C972.226649,184.42891 960.864933,198.785658 960.864933,215.13245 C960.864933,232.189972 972.510692,246.404573 989.127202,246.404573 C998.704613,246.404573 1007.019,241.577879 1012.62498,232.027821 C1012.70747,231.887289 1012.79674,231.73063 1012.89277,231.557843 C1013.85494,229.826727 1015.64535,228.726872 1017.61231,228.64166 L1017.85905,228.636321 L1038.38456,228.636321 C1038.71996,228.636343 1039.05312,228.690883 1039.371,228.797827 C1040.93255,229.323166 1041.79833,230.973262 1041.36969,232.542453 L1041.31671,232.716413 L1041.08134,233.401915 C1033.18621,255.938062 1012.66647,270.000812 989.411245,270.000812 C974.783035,270.000812 961.006955,264.883556 950.213325,254.222604 C938.851609,243.135215 934.022879,229.773489 934.022879,213.853135 C934.022879,185.992516 958.024504,160.832671 988.133052,160.832671 Z M812.417304,162.822715 C815.555286,162.822715 818.099123,165.366552 818.099123,168.504533 L818.099123,168.504533 L818.099123,180.737136 C818.099123,183.875117 815.555286,186.418954 812.417304,186.418954 L812.417304,186.418954 L797.506012,186.418954 L797.506012,262.32895 C797.506012,265.466932 794.962176,268.010768 791.824194,268.010768 L791.824194,268.010768 L776.345777,268.010768 C773.207795,268.010768 770.663958,265.466932 770.663958,262.32895 L770.663958,262.32895 L770.663958,186.418954 L755.610645,186.418954 C752.472663,186.418954 749.928827,183.875117 749.928827,180.737136 L749.928827,180.737136 L749.928827,168.504533 C749.928827,165.366552 752.472663,162.822715 755.610645,162.822715 L755.610645,162.822715 Z M882.269701,162.822715 C884.598479,162.822715 886.691483,164.24377 887.550674,166.408256 L887.550674,166.408256 L924.794195,260.232672 C925.059025,260.899838 925.19504,261.611144 925.19504,262.32895 C925.19504,265.466932 922.651203,268.010768 919.513221,268.010768 L919.513221,268.010768 L902.85159,268.010768 C900.411266,268.010768 898.243486,266.452494 897.465919,264.139364 L897.465919,264.139364 L893.654534,252.801144 L857.155021,252.801144 L852.977292,264.273172 C852.160068,266.517266 850.026733,268.010768 847.638467,268.010768 L847.638467,268.010768 L831.185854,268.010768 C830.46137,268.010768 829.743571,267.872212 829.071136,267.602566 C826.158599,266.434639 824.744312,263.12677 825.912239,260.214232 L825.912239,260.214232 L863.535795,166.389815 C864.399849,164.235066 866.487874,162.822715 868.809411,162.822715 L868.809411,162.822715 Z M1081.09849,162.822715 C1084.23647,162.822715 1086.78031,165.366552 1086.78031,168.504533 L1086.78031,168.504533 L1086.78031,210.157339 L1086.86737,210.149912 C1087.00986,210.125402 1087.137,210.041474 1087.21525,209.916696 L1087.21525,209.916696 L1115.07675,165.485987 C1116.11592,163.828836 1117.93441,162.822715 1119.89042,162.822715 L1119.89042,162.822715 L1134.27957,162.822715 C1135.39688,162.822715 1136.4894,163.152142 1137.42047,163.769793 C1140.0354,165.504469 1140.74898,169.030516 1139.0143,171.64544 L1139.0143,171.64544 L1110.07182,215.274596 L1140.84919,259.061639 C1141.52171,260.018433 1141.8826,261.159447 1141.8826,262.32895 C1141.8826,265.466932 1139.33876,268.010768 1136.20078,268.010768 L1136.20078,268.010768 L1118.88666,268.010768 C1116.93588,268.010768 1115.12149,267.00999 1114.08083,265.35997 L1114.08083,265.35997 L1087.06435,222.524043 L1086.99922,222.531544 C1086.87374,222.560983 1086.78031,222.673623 1086.78031,222.808085 L1086.78031,222.808085 L1086.78031,262.32895 C1086.78031,265.466932 1084.23647,268.010768 1081.09849,268.010768 L1081.09849,268.010768 L1065.62007,268.010768 C1062.48209,268.010768 1059.93825,265.466932 1059.93825,262.32895 L1059.93825,262.32895 L1059.93825,168.504533 C1059.93825,165.366552 1062.48209,162.822715 1065.62007,162.822715 L1065.62007,162.822715 Z M875.333767,195.516299 L864.540136,231.479242 L886.553461,231.479242 L875.759831,195.658445 L875.333767,195.516299 Z M1391.13227,13.0008124 C1413.16283,13.0008124 1434.45818,26.8595437 1442.15662,45.8051617 L1442.38573,46.3808194 L1442.45492,46.5799546 C1442.53713,46.8484374 1442.5791,47.1280352 1442.5791,47.4096047 C1442.5791,48.9165113 1441.40276,50.1486677 1439.91827,50.2378951 L1439.74566,50.2430691 L1416.67126,50.2430691 C1414.7935,50.2430691 1413.037,49.3153218 1411.97841,47.7643894 C1411.72549,47.3938437 1411.50051,47.0798079 1411.30347,46.8222821 C1406.2954,40.2767072 1399.09407,36.5970514 1390.42216,36.5970514 C1373.52161,36.5970514 1361.73383,50.2430691 1361.73383,67.1584452 C1361.73383,84.6424053 1372.8115,98.7148611 1390.56419,98.7148611 C1402.91329,98.7148611 1412.21187,92.7472465 1415.58273,82.1833131 L1415.70198,81.799485 L1389.99706,81.799485 C1386.93206,81.799485 1384.43388,79.3725905 1384.31934,76.3356072 L1384.31524,76.1176668 L1384.31524,66.0172545 C1384.31524,62.9522493 1386.74214,60.4540756 1389.77912,60.3395392 L1389.99706,60.3354363 L1441.12286,60.3354363 C1444.18787,60.3354363 1446.68604,62.7623308 1446.80058,65.7993141 L1446.80468,66.0172545 L1446.80468,66.3055691 C1446.80468,94.5926266 1426.06955,122.3111 1390.70621,122.3111 C1359.60351,122.3111 1334.89178,98.004131 1334.89178,67.1584452 C1334.89178,35.3177372 1360.59766,13.0008124 1391.13227,13.0008124 Z M1498.78453,13.0008124 C1505.74358,13.0008124 1511.8505,14.5644186 1517.38934,17.407339 C1527.79062,22.8102087 1533.18754,30.4120473 1534.03269,42.7044369 L1534.0657,43.2266321 L1534.0686,43.2938195 L1534.06957,43.3610628 C1534.06957,44.5960466 1533.11013,45.6069417 1531.89597,45.6890164 L1531.73621,45.6943965 L1509.87489,45.6943965 C1508.65007,45.694415 1507.57923,44.889204 1507.23037,43.7292966 L1507.18551,43.5612313 L1507.1039,43.2239611 C1505.68599,37.5604178 1502.70864,35.4598832 1498.07442,35.4598832 C1493.10367,35.4598832 1488.84303,39.0135337 1488.84303,43.7043522 C1488.84303,49.958777 1494.52389,52.8016974 1506.02762,57.776808 C1529.17712,67.7270292 1535,76.1136443 1535,89.901808 C1535,110.228689 1521.0819,122.168954 1498.35847,122.168954 C1475.72167,122.168954 1460.74061,110.4663 1460.44325,88.3023087 L1460.43874,87.6274717 L1460.44399,87.4717567 C1460.52053,86.3397582 1461.42536,85.4349238 1462.55736,85.3583824 L1462.71308,85.3531354 L1485.2847,85.3531354 C1486.24412,85.3531286 1487.05255,86.0483192 1487.20921,86.9793784 L1487.2292,87.1366601 L1487.26336,87.4992783 C1488.02307,94.9501606 1492.1092,99.7098832 1498.21644,99.7098832 C1503.75528,99.7098832 1508.29997,95.3033567 1508.29997,89.617516 C1508.29997,83.3090548 1501.71064,79.654723 1494.39519,76.5975703 L1493.68518,76.303512 L1493.68518,76.303512 L1492.99346,76.0215337 C1492.87798,75.974776 1492.7624,75.9281324 1492.64676,75.8815951 L1491.95234,75.6035831 C1491.72073,75.5112954 1491.48904,75.4193697 1491.25745,75.3277431 L1490.56319,75.0536973 C1490.33198,74.9626058 1490.10107,74.8717504 1489.87061,74.7810682 L1489.1808,74.5094778 C1488.49274,74.2382809 1487.81045,73.9680756 1487.13877,73.697162 C1469.95418,66.7320071 1462.143,57.634662 1462.143,43.9886443 C1462.143,26.0782461 1479.46961,13.0008124 1498.78453,13.0008124 Z M1245.93439,14.9908567 C1247.82601,14.9908567 1249.58774,15.93169 1250.64118,17.490008 L1250.77452,17.696742 L1290.013,81.515193 L1288.97553,20.7697007 C1288.97497,20.7373617 1288.9747,20.7050186 1288.9747,20.6726749 C1288.9747,17.6076696 1291.40159,15.109496 1294.43857,14.9949595 L1294.65651,14.9908567 L1308.90089,14.9908567 C1311.9659,14.9908567 1314.46407,17.4177511 1314.57861,20.4547344 L1314.58271,20.6726749 L1314.58271,114.497092 C1314.58271,117.562097 1312.15582,120.06027 1309.11883,120.174807 L1308.90089,120.17891 L1294.43295,120.17891 C1292.56293,120.17891 1290.81854,119.25931 1289.76071,117.730275 L1289.62077,117.518022 L1250.9571,55.9289098 L1251.60372,114.434299 C1251.60395,114.455229 1251.60406,114.47616 1251.60406,114.497092 C1251.60406,117.562097 1249.17717,120.06027 1246.14019,120.174807 L1245.92225,120.17891 L1231.64314,120.17891 C1228.57814,120.17891 1226.07997,117.752015 1225.96543,114.715032 L1225.96133,114.497092 L1225.96133,20.6726749 C1225.96133,17.6076696 1228.38822,15.109496 1231.4252,14.9949595 L1231.64314,14.9908567 L1245.93439,14.9908567 Z M723.488478,14.9908567 C726.553483,14.9908567 729.051656,17.4177511 729.166193,20.4547344 L729.170296,20.6726749 L729.170296,32.9052774 C729.170296,35.9702826 726.743401,38.4684563 723.706418,38.5829928 L723.488478,38.5870956 L708.577186,38.5870956 L708.577186,114.497092 C708.577186,117.562097 706.150291,120.06027 703.113308,120.174807 L702.895367,120.17891 L687.41695,120.17891 C684.351945,120.17891 681.853771,117.752015 681.739234,114.715032 L681.735132,114.497092 L681.735132,38.5870956 L666.681818,38.5870956 C663.616813,38.5870956 661.118639,36.1602012 661.004103,33.1232178 L661,32.9052774 L661,20.6726749 C661,17.6076696 663.426894,15.109496 666.463878,14.9949595 L666.681818,14.9908567 L723.488478,14.9908567 Z M766.80502,14.9908567 C769.870025,14.9908567 772.368199,17.4177511 772.482735,20.4547344 L772.486838,20.6726749 L772.486838,54.5074496 L806.856029,54.5074496 L806.856029,20.6726749 C806.856029,17.6076696 809.282923,15.109496 812.319906,14.9949595 L812.537847,14.9908567 L828.016264,14.9908567 C831.08127,14.9908567 833.579443,17.4177511 833.69398,20.4547344 L833.698083,20.6726749 L833.698083,114.497092 C833.698083,117.562097 831.271188,120.06027 828.234205,120.174807 L828.016264,120.17891 L812.537847,120.17891 C809.472842,120.17891 806.974668,117.752015 806.860131,114.715032 L806.856029,114.497092 L806.856029,78.1036885 L772.486838,78.1036885 L772.486838,114.497092 C772.486838,117.562097 770.059943,120.06027 767.02296,120.174807 L766.80502,120.17891 L751.326602,120.17891 C748.261597,120.17891 745.763423,117.752015 745.648887,114.715032 L745.644784,114.497092 L745.644784,20.6726749 C745.644784,17.6076696 748.071678,15.109496 751.108662,14.9949595 L751.326602,14.9908567 L766.80502,14.9908567 Z M911.098812,14.9908567 C914.163818,14.9908567 916.661991,17.4177511 916.776528,20.4547344 L916.78063,20.6726749 L916.78063,32.9052774 C916.78063,35.9702826 914.353736,38.4684563 911.316753,38.5829928 L911.098812,38.5870956 L884.115697,38.5870956 L884.115697,54.9338876 L910.104662,54.9338876 C913.169667,54.9338876 915.667841,57.3607821 915.782377,60.3977654 L915.78648,60.6157058 L915.78648,72.8483084 C915.78648,75.9133136 913.359586,78.4114873 910.322603,78.5260237 L910.104662,78.5301266 L884.115697,78.5301266 L884.115697,96.5826708 L911.098812,96.5826708 C914.163818,96.5826708 916.661991,99.0095653 916.776528,102.046549 L916.78063,102.264489 L916.78063,114.497092 C916.78063,117.562097 914.353736,120.06027 911.316753,120.174807 L911.098812,120.17891 L864.091633,120.17891 C861.026628,120.17891 858.528454,117.752015 858.413918,114.715032 L858.409815,114.497092 L858.409815,20.6726749 C858.409815,17.6076696 860.836709,15.109496 863.873693,14.9949595 L864.091633,14.9908567 L911.098812,14.9908567 Z M1039.4862,14.9908567 C1042.55121,14.9908567 1045.04938,17.4177511 1045.16392,20.4547344 L1045.16802,20.6726749 L1045.16802,32.9052774 C1045.16802,35.9702826 1042.74113,38.4684563 1039.70414,38.5829928 L1039.4862,38.5870956 L1024.57491,38.5870956 L1024.57491,114.497092 C1024.57491,117.562097 1022.14802,120.06027 1019.11103,120.174807 L1018.89309,120.17891 L1003.41467,120.17891 C1000.34967,120.17891 997.851496,117.752015 997.73696,114.715032 L997.732857,114.497092 L997.732857,38.5870956 L982.679543,38.5870956 C979.614538,38.5870956 977.116364,36.1602012 977.001828,33.1232178 L976.997725,32.9052774 L976.997725,20.6726749 C976.997725,17.6076696 979.42462,15.109496 982.461603,14.9949595 L982.679543,14.9908567 L1039.4862,14.9908567 Z M1082.80274,14.9908567 C1085.86775,14.9908567 1088.36592,17.4177511 1088.48046,20.4547344 L1088.48456,20.6726749 L1088.48456,54.5074496 L1122.85375,54.5074496 L1122.85375,20.6726749 C1122.85375,17.6076696 1125.28065,15.109496 1128.31763,14.9949595 L1128.53557,14.9908567 L1144.01399,14.9908567 C1147.07899,14.9908567 1149.57717,17.4177511 1149.6917,20.4547344 L1149.69581,20.6726749 L1149.69581,114.497092 C1149.69581,117.562097 1147.26891,120.06027 1144.23193,120.174807 L1144.01399,120.17891 L1128.53557,120.17891 C1125.47057,120.17891 1122.97239,117.752015 1122.85786,114.715032 L1122.85375,114.497092 L1122.85375,78.1036885 L1088.48456,78.1036885 L1088.48456,114.497092 C1088.48456,117.562097 1086.05767,120.06027 1083.02069,120.174807 L1082.80274,120.17891 L1067.32433,120.17891 C1064.25932,120.17891 1061.76115,117.752015 1061.64661,114.715032 L1061.64251,114.497092 L1061.64251,20.6726749 C1061.64251,17.6076696 1064.0694,15.109496 1067.10639,14.9949595 L1067.32433,14.9908567 L1082.80274,14.9908567 Z M1195.56778,14.9908567 C1198.63278,14.9908567 1201.13095,17.4177511 1201.24549,20.4547344 L1201.24959,20.6726749 L1201.24959,114.497092 C1201.24959,117.562097 1198.8227,120.06027 1195.78572,120.174807 L1195.56778,120.17891 L1180.08936,120.17891 C1177.02435,120.17891 1174.52618,117.752015 1174.41164,114.715032 L1174.40754,114.497092 L1174.40754,20.6726749 C1174.40754,17.6076696 1176.83443,15.109496 1179.87142,14.9949595 L1180.08936,14.9908567 L1195.56778,14.9908567 Z" id="wording" fill="#000000" fill-rule="nonzero"></path>
            </g>
        </g>
    </g>
</svg>